Coordinates
datacolumns 6
datarows 139
range 0 1.38
inDegrees=yes
Units are S.I. units (second, meters, Newtons, ...)
If the header above contains a line with 'inDegrees', this indicates whether rotational values are in degrees (yes) or radians (no).
endheader
time	foot_tx	hip_flexion_r	knee_angle_r	ankle_angle_r	lumbar
0	0.26306159	66.18465287	-65.83821859	1.79858619	-8.19436343
0.01	0.26304903	66.21021778	-65.83481561	1.7993328	-8.21633777
0.02	0.26306988	66.23691441	-65.81936458	1.78982814	-8.24426596
0.03	0.26307436	66.26453649	-65.80865768	1.78404437	-8.27577827
0.04	0.26307843	66.29211975	-65.79746889	1.77809785	-8.31190193
0.05	0.26306863	66.28925126	-65.78880386	1.77669937	-8.38885325
0.06	0.26307075	66.32436773	-65.77691123	1.77036358	-8.42633919
0.07	0.2630716	66.35831992	-65.76275707	1.76256947	-8.47241416
0.08	0.26305281	66.34508573	-65.75277415	1.76084113	-8.58388134
0.09	0.26304778	66.36940698	-65.73629191	1.75104411	-8.66195464
0.1	0.26303261	66.39735819	-65.72092539	1.74121534	-8.7480673
0.11	0.26301761	66.42694426	-65.70244673	1.72877445	-8.84423383
0.12	0.26300572	66.49063451	-65.68047711	1.71155031	-8.91168151
0.13	0.26297908	66.4864638	-65.66000245	1.70026663	-9.07227061
0.14	0.26296492	66.55998904	-65.63304636	1.67938535	-9.15308891
0.15	0.26292864	66.54466609	-65.60840082	1.66674444	-9.35351971
0.16	0.26289753	66.57650785	-65.57920326	1.64790308	-9.5125371
0.17	0.26286129	66.61108707	-65.54826259	1.62791007	-9.68440243
0.18	0.26281966	66.65162952	-65.51621866	1.60692085	-9.86631027
0.19	0.26277545	66.70190461	-65.48298253	1.5846217	-10.05417727
0.2	0.262724	66.76172739	-65.45075615	1.56283593	-10.24790642
0.21	0.26268045	66.88830968	-65.4167402	1.53556049	-10.37865768
0.22	0.26261076	66.92145716	-65.39035849	1.52125653	-10.63589282
0.23	0.2625469	67.02097983	-65.36358899	1.50333855	-10.8288016
0.24	0.26248021	67.13427717	-65.33959034	1.48802051	-11.01930737
0.25	0.26241491	67.29231701	-65.31709413	1.47263676	-11.17062074
0.26	0.26233494	67.39867081	-65.30146734	1.46781614	-11.39691829
0.27	0.26226043	67.57325181	-65.28711394	1.46138412	-11.55657734
0.28	0.26217842	67.70804604	-65.27456281	1.46144771	-11.77984599
0.29	0.26208344	67.89983812	-65.26870897	1.46515708	-11.95109105
0.3	0.26199678	68.09172051	-65.25973713	1.46885043	-12.14051864
0.31	0.26188754	68.23967698	-65.2574493	1.48341916	-12.40008297
0.32	0.261748	68.46245625	-65.26400155	1.50318755	-12.589352
0.33	0.26162299	68.62033058	-65.26365966	1.5243727	-12.87784169
0.34	0.2614742	68.86450519	-65.2697349	1.5478181	-13.08534827
0.35	0.26133705	69.03441347	-65.26911435	1.57331966	-13.40641722
0.36	0.26117177	69.30312893	-65.2772942	1.60181725	-13.63398229
0.37	0.26101064	69.50642855	-65.28605034	1.63657676	-13.96567017
0.38	0.26086159	69.8016721	-65.29490393	1.66686892	-14.21581391
0.39	0.26072629	70.02781944	-65.30815195	1.70569075	-14.57483872
0.4	0.26062348	70.34969368	-65.32206783	1.73928973	-14.84830104
0.41	0.26051292	70.58504608	-65.35257242	1.79214232	-15.25055299
0.42	0.26043504	70.87521356	-65.39005739	1.84665216	-15.61441572
0.43	0.26037917	71.1787983	-65.43454464	1.90635488	-15.99083388
0.44	0.26033527	71.54632059	-65.48569174	1.96811505	-16.32065493
0.45	0.26029003	71.87699845	-65.53317547	2.03302456	-16.72958061
0.46	0.26026005	72.2932722	-65.57145561	2.08860661	-17.07126022
0.47	0.26021719	72.79072344	-65.60235085	2.1386022	-17.35259103
0.48	0.26017217	73.34084413	-65.62552926	2.18478337	-17.60466221
0.49	0.26012399	73.95816694	-65.64250712	2.22830928	-17.80757462
0.5	0.26008383	74.64118654	-65.64863162	2.26706793	-17.96047418
0.51	0.26003842	75.38888766	-65.65046933	2.30736144	-18.0582465
0.52	0.26000444	76.19582475	-65.64142781	2.3458704	-18.10394835
0.53	0.25999309	77.0739771	-65.62019285	2.3813418	-18.07768824
0.54	0.25996369	77.99622695	-65.6050518	2.43069402	-18.00505618
0.55	0.25995411	78.96329291	-65.59198864	2.49054151	-17.88050713
0.56	0.25994516	79.95660496	-65.59891622	2.57582633	-17.72021602
0.57	0.25993561	80.95835063	-65.6327905	2.69350812	-17.544016
0.58	0.25992677	81.96712008	-65.69281339	2.84331882	-17.35391186
0.59	0.25991361	82.98853619	-65.77149055	3.02068125	-17.14642591
0.6	0.25989517	84.03468219	-65.85603283	3.21677535	-16.91046301
0.61	0.25986571	85.11793171	-65.93563627	3.42482503	-16.6325072
0.62	0.25982318	86.24422857	-66.00656078	3.64252392	-16.30243585
0.63	0.25976211	87.41407952	-66.06346524	3.86798286	-15.91494403
0.64	0.25967963	88.62262616	-66.10429402	4.10111171	-15.46889034
0.65	0.25958525	89.85754654	-66.12704767	4.34111891	-14.97188403
0.66	0.25947978	91.09863854	-66.1359265	4.59151739	-14.4407214
0.67	0.25937569	92.31760407	-66.14110324	4.85799414	-13.90303019
0.68	0.25929324	93.48226458	-66.15212637	5.14520312	-13.39264083
0.69	0.25924494	94.55506784	-66.18367003	5.45999741	-12.95384843
0.7	0.25924467	95.53238774	-66.2362903	5.79904767	-12.59096053
0.71	0.25929529	96.41688459	-66.31448405	6.15989836	-12.30352497
0.72	0.25939978	97.22490662	-66.41796678	6.53648803	-12.07397264
0.73	0.25955215	97.9654242	-66.54355578	6.92272788	-11.89159203
0.74	0.25974614	98.64869575	-66.68645322	7.31280699	-11.73964053
0.75	0.25997209	99.26795175	-66.84552124	7.70505414	-11.61935293
0.76	0.26021926	99.82658572	-67.01505828	8.09681043	-11.51474008
0.77	0.26048028	100.3115307	-67.19432349	8.48827207	-11.43468026
0.78	0.26075174	100.7257777	-67.37533142	8.87717808	-11.36472929
0.79	0.26103323	101.0533895	-67.55752043	9.26573238	-11.31893025
0.8	0.26133303	101.2894271	-67.73642646	9.65322166	-11.29779664
0.81	0.2616553	101.4077102	-67.91220596	10.04249197	-11.33086919
0.82	0.26200878	101.4700079	-68.07134944	10.42430101	-11.3376786
0.83	0.26237912	101.3882903	-68.21487023	10.80612822	-11.43098871
0.84	0.26276457	101.245165	-68.32386397	11.17547832	-11.50671942
0.85	0.26315418	101.05037	-68.3941291	11.53162299	-11.55589598
0.86	0.26353764	100.8147757	-68.42238518	11.87365189	-11.56736334
0.87	0.26390726	100.545872	-68.41143416	12.20316312	-11.53491742
0.88	0.26425692	100.2382392	-68.36664216	12.52294734	-11.46913676
0.89	0.26458569	99.87991679	-68.29127391	12.83366722	-11.38826381
0.9	0.26489972	99.46336661	-68.1854605	13.13358923	-11.30628142
0.91	0.26519566	98.98632384	-68.04597158	13.42019075	-11.23158964
0.92	0.26547746	98.4548466	-67.86892003	13.69023428	-11.16241884
0.93	0.26574813	97.87110778	-67.65263672	13.94235684	-11.10118506
0.94	0.26599903	97.22376638	-67.40067168	14.17985206	-11.0637667
0.95	0.26624243	96.50279228	-67.11257285	14.40271952	-11.064475
0.96	0.26646263	95.71028814	-66.78854698	14.6123657	-11.10038115
0.97	0.26666576	94.85945501	-66.42519912	14.80602842	-11.15625736
0.98	0.26685004	93.97265788	-66.02144411	14.98177977	-11.20615994
0.99	0.26701458	93.06663542	-65.57948047	15.13946398	-11.23158771
1	0.26716767	92.14601814	-65.1034162	15.279851	-11.22902233
1.01	0.26731806	91.21217919	-64.59780871	15.40414268	-11.19853173
1.02	0.26747267	90.25548422	-64.06846942	15.51508363	-11.15172653
1.03	0.26762613	89.2711289	-63.51880218	15.61521611	-11.09236449
1.04	0.26777998	88.24503396	-62.95289023	15.70728079	-11.03323246
1.05	0.26792997	87.17610745	-62.37104836	15.79195217	-10.97340189
1.06	0.26807858	86.06698439	-61.77250014	15.86851975	-10.91129164
1.07	0.26823617	84.93095093	-61.15408118	15.93345392	-10.83616428
1.08	0.268404	83.76956909	-60.51573496	15.98656175	-10.75356725
1.09	0.26858406	82.59013825	-59.85602502	16.02600552	-10.66190383
1.1	0.26877423	81.39772398	-59.17441048	16.05070771	-10.56120993
1.11	0.26897126	80.19271614	-58.47110221	16.06040872	-10.45550096
1.12	0.26917611	78.97943033	-57.74571217	16.05423086	-10.34196214
1.13	0.26938822	77.7482406	-56.99961594	16.03359088	-10.23321546
1.14	0.26960879	76.49530189	-56.23280866	15.99875663	-10.13434291
1.15	0.26983782	75.22037177	-55.44412501	15.94925625	-10.04657557
1.16	0.27007249	73.92377036	-54.63125977	15.88408368	-9.9703652
1.17	0.27030828	72.60047659	-53.79125494	15.80226398	-9.91263208
1.18	0.27054248	71.2491535	-52.92027015	15.70205234	-9.87456134
1.19	0.27077501	69.86698364	-52.01384114	15.58113608	-9.85720049
1.2	0.27100608	68.44004131	-51.06790519	15.43793871	-9.87298141
1.21	0.27123804	66.95358856	-50.07822729	15.2709039	-9.93361704
1.22	0.27147545	65.39029062	-49.03889121	15.07763391	-10.05240732
1.23	0.27172208	63.73437124	-47.94519715	14.85646919	-10.24167152
1.24	0.27198053	61.98243784	-46.79608733	14.60719255	-10.50157679
1.25	0.27225124	60.14696451	-45.59554969	14.33180596	-10.81529204
1.26	0.27253236	58.26658052	-44.3555115	14.03571551	-11.13872435
1.27	0.27281447	56.38135446	-43.09638523	13.72998918	-11.4287345
1.28	0.27308293	54.53645827	-41.8458583	13.43062093	-11.63733129
1.29	0.27332265	52.79909501	-40.63385252	13.15456912	-11.68785585
1.3	0.27351363	51.2309416	-39.48823007	12.91943417	-11.50721658
1.31	0.27364397	49.87889757	-38.42423301	12.73527598	-11.03919413
1.32	0.27372047	48.73119557	-37.42795463	12.59438277	-10.29823137
1.33	0.27376969	47.7069385	-36.45848048	12.47184721	-9.3855672
1.34	0.2738229	46.67242421	-35.46768217	12.337974	-8.46990045
1.35	0.27390197	45.47491641	-34.40986291	12.16669395	-7.74269026
1.36	0.27404488	44.14396816	-33.2724656	11.94096242	-7.18339284
1.37	0.27423939	42.64295027	-32.05755473	11.66349736	-6.83844953
1.38	0.27448668	41.00398653	-30.77558749	11.3378861	-6.67429685
